<mxfile host="app.diagrams.net" modified="2021-01-21T18:11:50.570Z" agent="5.0 (Macintosh; Intel Mac OS X 10_15_7) AppleWebKit/605.1.15 (KHTML, like Gecko) Version/14.0 Safari/605.1.15" etag="Llu1Sl-_jLWSnRhIFZjE" version="14.1.8" type="github">
  <diagram id="kgpKYQtTHZ0yAKxKKP6v" name="Page-1">
    <mxGraphModel dx="946" dy="662" grid="1" gridSize="10" guides="1" tooltips="1" connect="1" arrows="1" fold="1" page="1" pageScale="1" pageWidth="850" pageHeight="1100" math="0" shadow="0">
      <root>
        <mxCell id="0" />
        <mxCell id="1" parent="0" />
        <mxCell id="guHUwheasRssxjLzHh6A-11" style="edgeStyle=orthogonalEdgeStyle;rounded=0;orthogonalLoop=1;jettySize=auto;html=1;dashed=1;endArrow=none;endFill=0;" edge="1" parent="1" source="guHUwheasRssxjLzHh6A-12">
          <mxGeometry relative="1" as="geometry">
            <mxPoint x="145" y="960" as="targetPoint" />
          </mxGeometry>
        </mxCell>
        <mxCell id="guHUwheasRssxjLzHh6A-1" value="用户" style="shape=umlActor;verticalLabelPosition=bottom;verticalAlign=top;html=1;outlineConnect=0;" vertex="1" parent="1">
          <mxGeometry x="130" y="110" width="30" height="60" as="geometry" />
        </mxCell>
        <mxCell id="guHUwheasRssxjLzHh6A-2" value="官方组织" style="shape=umlActor;verticalLabelPosition=bottom;verticalAlign=top;html=1;outlineConnect=0;" vertex="1" parent="1">
          <mxGeometry x="930" y="110" width="30" height="60" as="geometry" />
        </mxCell>
        <mxCell id="guHUwheasRssxjLzHh6A-3" value="管理员" style="shape=umlActor;verticalLabelPosition=bottom;verticalAlign=top;html=1;outlineConnect=0;" vertex="1" parent="1">
          <mxGeometry x="530" y="110" width="30" height="60" as="geometry" />
        </mxCell>
        <mxCell id="guHUwheasRssxjLzHh6A-4" value="系统" style="shape=umlActor;verticalLabelPosition=bottom;verticalAlign=top;html=1;outlineConnect=0;" vertex="1" parent="1">
          <mxGeometry x="330" y="110" width="30" height="60" as="geometry" />
        </mxCell>
        <mxCell id="guHUwheasRssxjLzHh6A-7" value="专栏" style="rounded=0;whiteSpace=wrap;html=1;" vertex="1" parent="1">
          <mxGeometry x="690" y="120" width="70" height="40" as="geometry" />
        </mxCell>
        <mxCell id="guHUwheasRssxjLzHh6A-12" value="" style="rounded=0;whiteSpace=wrap;html=1;" vertex="1" parent="1">
          <mxGeometry x="137.5" y="200" width="15" height="720" as="geometry" />
        </mxCell>
        <mxCell id="guHUwheasRssxjLzHh6A-13" style="edgeStyle=orthogonalEdgeStyle;rounded=0;orthogonalLoop=1;jettySize=auto;html=1;dashed=1;endArrow=none;endFill=0;" edge="1" parent="1" source="guHUwheasRssxjLzHh6A-1" target="guHUwheasRssxjLzHh6A-12">
          <mxGeometry relative="1" as="geometry">
            <mxPoint x="145" y="760" as="targetPoint" />
            <mxPoint x="145" y="170" as="sourcePoint" />
          </mxGeometry>
        </mxCell>
        <mxCell id="guHUwheasRssxjLzHh6A-14" value="" style="rounded=0;whiteSpace=wrap;html=1;" vertex="1" parent="1">
          <mxGeometry x="30" y="210" width="15" height="60" as="geometry" />
        </mxCell>
        <mxCell id="guHUwheasRssxjLzHh6A-24" style="edgeStyle=orthogonalEdgeStyle;rounded=0;orthogonalLoop=1;jettySize=auto;html=1;dashed=1;endArrow=none;endFill=0;" edge="1" parent="1" source="guHUwheasRssxjLzHh6A-31">
          <mxGeometry relative="1" as="geometry">
            <mxPoint x="345" y="960" as="targetPoint" />
            <mxPoint x="345" y="170" as="sourcePoint" />
          </mxGeometry>
        </mxCell>
        <mxCell id="guHUwheasRssxjLzHh6A-27" style="edgeStyle=orthogonalEdgeStyle;rounded=0;orthogonalLoop=1;jettySize=auto;html=1;dashed=1;endArrow=none;endFill=0;" edge="1" parent="1" source="guHUwheasRssxjLzHh6A-32">
          <mxGeometry relative="1" as="geometry">
            <mxPoint x="545" y="960" as="targetPoint" />
            <mxPoint x="544.5" y="170" as="sourcePoint" />
          </mxGeometry>
        </mxCell>
        <mxCell id="guHUwheasRssxjLzHh6A-28" style="edgeStyle=orthogonalEdgeStyle;rounded=0;orthogonalLoop=1;jettySize=auto;html=1;dashed=1;endArrow=none;endFill=0;" edge="1" parent="1" source="guHUwheasRssxjLzHh6A-79">
          <mxGeometry relative="1" as="geometry">
            <mxPoint x="725" y="960" as="targetPoint" />
            <mxPoint x="724.5" y="160" as="sourcePoint" />
            <Array as="points">
              <mxPoint x="725" y="170" />
              <mxPoint x="725" y="170" />
            </Array>
          </mxGeometry>
        </mxCell>
        <mxCell id="guHUwheasRssxjLzHh6A-29" style="edgeStyle=orthogonalEdgeStyle;rounded=0;orthogonalLoop=1;jettySize=auto;html=1;dashed=1;endArrow=none;endFill=0;" edge="1" parent="1" source="guHUwheasRssxjLzHh6A-78">
          <mxGeometry relative="1" as="geometry">
            <mxPoint x="945" y="960" as="targetPoint" />
            <mxPoint x="944.5" y="170" as="sourcePoint" />
            <Array as="points">
              <mxPoint x="945" y="180" />
              <mxPoint x="945" y="180" />
            </Array>
          </mxGeometry>
        </mxCell>
        <mxCell id="guHUwheasRssxjLzHh6A-39" style="edgeStyle=orthogonalEdgeStyle;rounded=0;orthogonalLoop=1;jettySize=auto;html=1;dashed=1;endArrow=none;endFill=0;" edge="1" parent="1" source="guHUwheasRssxjLzHh6A-33">
          <mxGeometry relative="1" as="geometry">
            <mxPoint x="345" y="390" as="targetPoint" />
          </mxGeometry>
        </mxCell>
        <mxCell id="guHUwheasRssxjLzHh6A-40" style="edgeStyle=orthogonalEdgeStyle;rounded=0;orthogonalLoop=1;jettySize=auto;html=1;dashed=1;endArrow=none;endFill=0;" edge="1" parent="1" source="guHUwheasRssxjLzHh6A-33">
          <mxGeometry relative="1" as="geometry">
            <mxPoint x="345" y="390" as="targetPoint" />
          </mxGeometry>
        </mxCell>
        <mxCell id="guHUwheasRssxjLzHh6A-44" style="edgeStyle=orthogonalEdgeStyle;rounded=0;orthogonalLoop=1;jettySize=auto;html=1;dashed=1;endArrow=none;endFill=0;" edge="1" parent="1" source="guHUwheasRssxjLzHh6A-48">
          <mxGeometry relative="1" as="geometry">
            <mxPoint x="345" y="370" as="targetPoint" />
          </mxGeometry>
        </mxCell>
        <mxCell id="guHUwheasRssxjLzHh6A-46" style="edgeStyle=orthogonalEdgeStyle;rounded=0;orthogonalLoop=1;jettySize=auto;html=1;dashed=1;endArrow=none;endFill=0;" edge="1" parent="1" source="guHUwheasRssxjLzHh6A-48">
          <mxGeometry relative="1" as="geometry">
            <mxPoint x="345" y="430" as="targetPoint" />
          </mxGeometry>
        </mxCell>
        <mxCell id="guHUwheasRssxjLzHh6A-33" value="" style="rounded=0;whiteSpace=wrap;html=1;" vertex="1" parent="1">
          <mxGeometry x="337.5" y="220" width="15" height="80" as="geometry" />
        </mxCell>
        <mxCell id="guHUwheasRssxjLzHh6A-34" style="edgeStyle=orthogonalEdgeStyle;rounded=0;orthogonalLoop=1;jettySize=auto;html=1;dashed=1;endArrow=none;endFill=0;" edge="1" parent="1" target="guHUwheasRssxjLzHh6A-33">
          <mxGeometry relative="1" as="geometry">
            <mxPoint x="345" y="760" as="targetPoint" />
            <mxPoint x="345" y="170" as="sourcePoint" />
          </mxGeometry>
        </mxCell>
        <mxCell id="guHUwheasRssxjLzHh6A-35" value="" style="endArrow=open;html=1;endFill=0;" edge="1" parent="1">
          <mxGeometry width="50" height="50" relative="1" as="geometry">
            <mxPoint x="152" y="240" as="sourcePoint" />
            <mxPoint x="337" y="240" as="targetPoint" />
          </mxGeometry>
        </mxCell>
        <mxCell id="guHUwheasRssxjLzHh6A-36" value="填写注册信息" style="text;html=1;strokeColor=none;fillColor=none;align=center;verticalAlign=middle;whiteSpace=wrap;rounded=0;" vertex="1" parent="1">
          <mxGeometry x="210" y="220" width="80" height="20" as="geometry" />
        </mxCell>
        <mxCell id="guHUwheasRssxjLzHh6A-37" value="" style="endArrow=classic;html=1;exitX=0.206;exitY=0.8;exitDx=0;exitDy=0;exitPerimeter=0;" edge="1" parent="1">
          <mxGeometry width="50" height="50" relative="1" as="geometry">
            <mxPoint x="353.4799999999999" y="260" as="sourcePoint" />
            <mxPoint x="352.5" y="274" as="targetPoint" />
            <Array as="points">
              <mxPoint x="399.5" y="260" />
              <mxPoint x="399.5" y="274" />
              <mxPoint x="369.5" y="274" />
            </Array>
          </mxGeometry>
        </mxCell>
        <mxCell id="guHUwheasRssxjLzHh6A-38" value="" style="endArrow=open;html=1;dashed=1;endFill=0;" edge="1" parent="1">
          <mxGeometry width="50" height="50" relative="1" as="geometry">
            <mxPoint x="336" y="289" as="sourcePoint" />
            <mxPoint x="153" y="290" as="targetPoint" />
          </mxGeometry>
        </mxCell>
        <mxCell id="guHUwheasRssxjLzHh6A-41" value="发送短信" style="text;html=1;strokeColor=none;fillColor=none;align=center;verticalAlign=middle;whiteSpace=wrap;rounded=0;" vertex="1" parent="1">
          <mxGeometry x="210" y="270" width="80" height="20" as="geometry" />
        </mxCell>
        <mxCell id="guHUwheasRssxjLzHh6A-43" value="" style="endArrow=open;html=1;exitX=1.233;exitY=0.079;exitDx=0;exitDy=0;exitPerimeter=0;endFill=0;" edge="1" parent="1">
          <mxGeometry width="50" height="50" relative="1" as="geometry">
            <mxPoint x="156.495" y="331.08000000000004" as="sourcePoint" />
            <mxPoint x="337.5" y="330" as="targetPoint" />
          </mxGeometry>
        </mxCell>
        <mxCell id="guHUwheasRssxjLzHh6A-45" value="提交短信" style="text;html=1;strokeColor=none;fillColor=none;align=center;verticalAlign=middle;whiteSpace=wrap;rounded=0;" vertex="1" parent="1">
          <mxGeometry x="210" y="310" width="80" height="20" as="geometry" />
        </mxCell>
        <mxCell id="guHUwheasRssxjLzHh6A-47" value="" style="endArrow=classic;html=1;" edge="1" parent="1">
          <mxGeometry width="50" height="50" relative="1" as="geometry">
            <mxPoint x="352.5" y="360" as="sourcePoint" />
            <mxPoint x="352.5" y="385" as="targetPoint" />
            <Array as="points">
              <mxPoint x="399.5" y="360" />
              <mxPoint x="399.5" y="385" />
            </Array>
          </mxGeometry>
        </mxCell>
        <mxCell id="guHUwheasRssxjLzHh6A-49" style="edgeStyle=orthogonalEdgeStyle;rounded=0;orthogonalLoop=1;jettySize=auto;html=1;dashed=1;endArrow=none;endFill=0;" edge="1" parent="1" source="guHUwheasRssxjLzHh6A-33" target="guHUwheasRssxjLzHh6A-48">
          <mxGeometry relative="1" as="geometry">
            <mxPoint x="345" y="430" as="targetPoint" />
            <mxPoint x="345" y="310" as="sourcePoint" />
          </mxGeometry>
        </mxCell>
        <mxCell id="guHUwheasRssxjLzHh6A-53" style="edgeStyle=orthogonalEdgeStyle;rounded=0;orthogonalLoop=1;jettySize=auto;html=1;dashed=1;endArrow=none;endFill=0;" edge="1" parent="1" source="guHUwheasRssxjLzHh6A-48">
          <mxGeometry relative="1" as="geometry">
            <mxPoint x="345" y="450" as="targetPoint" />
          </mxGeometry>
        </mxCell>
        <mxCell id="guHUwheasRssxjLzHh6A-48" value="" style="rounded=0;whiteSpace=wrap;html=1;" vertex="1" parent="1">
          <mxGeometry x="337.5" y="320" width="15" height="140" as="geometry" />
        </mxCell>
        <mxCell id="guHUwheasRssxjLzHh6A-51" value="验证" style="text;html=1;strokeColor=none;fillColor=none;align=center;verticalAlign=middle;whiteSpace=wrap;rounded=0;" vertex="1" parent="1">
          <mxGeometry x="337.5" y="340" width="80" height="20" as="geometry" />
        </mxCell>
        <mxCell id="guHUwheasRssxjLzHh6A-52" value="记录" style="text;html=1;strokeColor=none;fillColor=none;align=center;verticalAlign=middle;whiteSpace=wrap;rounded=0;" vertex="1" parent="1">
          <mxGeometry x="337.5" y="240" width="80" height="20" as="geometry" />
        </mxCell>
        <mxCell id="guHUwheasRssxjLzHh6A-56" value="" style="endArrow=classic;html=1;" edge="1" parent="1">
          <mxGeometry width="50" height="50" relative="1" as="geometry">
            <mxPoint x="352.5" y="410" as="sourcePoint" />
            <mxPoint x="352.5" y="435" as="targetPoint" />
            <Array as="points">
              <mxPoint x="399.5" y="410" />
              <mxPoint x="399.5" y="435" />
            </Array>
          </mxGeometry>
        </mxCell>
        <mxCell id="guHUwheasRssxjLzHh6A-57" value="注册" style="text;html=1;strokeColor=none;fillColor=none;align=center;verticalAlign=middle;whiteSpace=wrap;rounded=0;" vertex="1" parent="1">
          <mxGeometry x="337.5" y="390" width="80" height="20" as="geometry" />
        </mxCell>
        <mxCell id="guHUwheasRssxjLzHh6A-59" value="" style="endArrow=open;html=1;dashed=1;exitX=-0.09;exitY=0.859;exitDx=0;exitDy=0;exitPerimeter=0;endFill=0;" edge="1" parent="1" source="guHUwheasRssxjLzHh6A-48">
          <mxGeometry width="50" height="50" relative="1" as="geometry">
            <mxPoint x="230" y="460" as="sourcePoint" />
            <mxPoint x="153" y="440" as="targetPoint" />
          </mxGeometry>
        </mxCell>
        <mxCell id="guHUwheasRssxjLzHh6A-60" value="注册成功 登录" style="text;html=1;strokeColor=none;fillColor=none;align=center;verticalAlign=middle;whiteSpace=wrap;rounded=0;" vertex="1" parent="1">
          <mxGeometry x="210" y="420" width="80" height="20" as="geometry" />
        </mxCell>
        <mxCell id="guHUwheasRssxjLzHh6A-61" value="" style="endArrow=classic;html=1;" edge="1" parent="1">
          <mxGeometry width="50" height="50" relative="1" as="geometry">
            <mxPoint x="152.5" y="500" as="sourcePoint" />
            <mxPoint x="152.5" y="525" as="targetPoint" />
            <Array as="points">
              <mxPoint x="199.5" y="500" />
              <mxPoint x="199.5" y="525" />
            </Array>
          </mxGeometry>
        </mxCell>
        <mxCell id="guHUwheasRssxjLzHh6A-62" value="交互" style="text;html=1;strokeColor=none;fillColor=none;align=center;verticalAlign=middle;whiteSpace=wrap;rounded=0;" vertex="1" parent="1">
          <mxGeometry x="130" y="480" width="80" height="20" as="geometry" />
        </mxCell>
        <mxCell id="guHUwheasRssxjLzHh6A-63" value="" style="endArrow=open;html=1;exitX=1;exitY=0.5;exitDx=0;exitDy=0;endFill=0;" edge="1" parent="1" source="guHUwheasRssxjLzHh6A-12">
          <mxGeometry width="50" height="50" relative="1" as="geometry">
            <mxPoint x="190" y="600" as="sourcePoint" />
            <mxPoint x="537" y="560" as="targetPoint" />
          </mxGeometry>
        </mxCell>
        <mxCell id="guHUwheasRssxjLzHh6A-32" value="" style="rounded=0;whiteSpace=wrap;html=1;" vertex="1" parent="1">
          <mxGeometry x="537.5" y="540" width="15" height="100" as="geometry" />
        </mxCell>
        <mxCell id="guHUwheasRssxjLzHh6A-65" style="edgeStyle=orthogonalEdgeStyle;rounded=0;orthogonalLoop=1;jettySize=auto;html=1;dashed=1;endArrow=none;endFill=0;" edge="1" parent="1" target="guHUwheasRssxjLzHh6A-32">
          <mxGeometry relative="1" as="geometry">
            <mxPoint x="544.5" y="760" as="targetPoint" />
            <mxPoint x="544.5" y="170" as="sourcePoint" />
          </mxGeometry>
        </mxCell>
        <mxCell id="guHUwheasRssxjLzHh6A-66" value="举报" style="text;html=1;strokeColor=none;fillColor=none;align=center;verticalAlign=middle;whiteSpace=wrap;rounded=0;" vertex="1" parent="1">
          <mxGeometry x="240" y="540" width="80" height="20" as="geometry" />
        </mxCell>
        <mxCell id="guHUwheasRssxjLzHh6A-68" value="" style="endArrow=classic;html=1;" edge="1" parent="1">
          <mxGeometry width="50" height="50" relative="1" as="geometry">
            <mxPoint x="552.5" y="569.9999999999999" as="sourcePoint" />
            <mxPoint x="552.5" y="594.9999999999999" as="targetPoint" />
            <Array as="points">
              <mxPoint x="599.5" y="570" />
              <mxPoint x="599.5" y="595" />
            </Array>
          </mxGeometry>
        </mxCell>
        <mxCell id="guHUwheasRssxjLzHh6A-69" value="核查" style="text;html=1;strokeColor=none;fillColor=none;align=center;verticalAlign=middle;whiteSpace=wrap;rounded=0;" vertex="1" parent="1">
          <mxGeometry x="530" y="550" width="80" height="20" as="geometry" />
        </mxCell>
        <mxCell id="guHUwheasRssxjLzHh6A-31" value="" style="rounded=0;whiteSpace=wrap;html=1;" vertex="1" parent="1">
          <mxGeometry x="337.5" y="580" width="15" height="130" as="geometry" />
        </mxCell>
        <mxCell id="guHUwheasRssxjLzHh6A-70" style="edgeStyle=orthogonalEdgeStyle;rounded=0;orthogonalLoop=1;jettySize=auto;html=1;dashed=1;endArrow=none;endFill=0;" edge="1" parent="1" source="guHUwheasRssxjLzHh6A-33" target="guHUwheasRssxjLzHh6A-31">
          <mxGeometry relative="1" as="geometry">
            <mxPoint x="345" y="760" as="targetPoint" />
            <mxPoint x="345" y="300" as="sourcePoint" />
          </mxGeometry>
        </mxCell>
        <mxCell id="guHUwheasRssxjLzHh6A-71" value="" style="endArrow=classic;html=1;dashed=1;entryX=1;entryY=0.25;entryDx=0;entryDy=0;" edge="1" parent="1" target="guHUwheasRssxjLzHh6A-31">
          <mxGeometry width="50" height="50" relative="1" as="geometry">
            <mxPoint x="535" y="613" as="sourcePoint" />
            <mxPoint x="480" y="600" as="targetPoint" />
          </mxGeometry>
        </mxCell>
        <mxCell id="guHUwheasRssxjLzHh6A-72" value="违规信息" style="text;html=1;strokeColor=none;fillColor=none;align=center;verticalAlign=middle;whiteSpace=wrap;rounded=0;" vertex="1" parent="1">
          <mxGeometry x="410" y="590" width="80" height="20" as="geometry" />
        </mxCell>
        <mxCell id="guHUwheasRssxjLzHh6A-74" value="" style="endArrow=classic;html=1;" edge="1" parent="1">
          <mxGeometry width="50" height="50" relative="1" as="geometry">
            <mxPoint x="354" y="640" as="sourcePoint" />
            <mxPoint x="354" y="665" as="targetPoint" />
            <Array as="points">
              <mxPoint x="401" y="640" />
              <mxPoint x="401" y="665" />
            </Array>
          </mxGeometry>
        </mxCell>
        <mxCell id="guHUwheasRssxjLzHh6A-75" value="处理" style="text;html=1;strokeColor=none;fillColor=none;align=center;verticalAlign=middle;whiteSpace=wrap;rounded=0;" vertex="1" parent="1">
          <mxGeometry x="337.5" y="620" width="80" height="20" as="geometry" />
        </mxCell>
        <mxCell id="guHUwheasRssxjLzHh6A-76" value="" style="endArrow=open;html=1;dashed=1;entryX=0.967;entryY=0.668;entryDx=0;entryDy=0;entryPerimeter=0;endFill=0;" edge="1" parent="1" target="guHUwheasRssxjLzHh6A-12">
          <mxGeometry width="50" height="50" relative="1" as="geometry">
            <mxPoint x="337.5" y="680.5" as="sourcePoint" />
            <mxPoint x="152" y="682" as="targetPoint" />
          </mxGeometry>
        </mxCell>
        <mxCell id="guHUwheasRssxjLzHh6A-77" value="举报成功" style="text;html=1;strokeColor=none;fillColor=none;align=center;verticalAlign=middle;whiteSpace=wrap;rounded=0;" vertex="1" parent="1">
          <mxGeometry x="210" y="660" width="80" height="20" as="geometry" />
        </mxCell>
        <mxCell id="guHUwheasRssxjLzHh6A-79" value="" style="rounded=0;whiteSpace=wrap;html=1;" vertex="1" parent="1">
          <mxGeometry x="717.5" y="760" width="15" height="140" as="geometry" />
        </mxCell>
        <mxCell id="guHUwheasRssxjLzHh6A-81" value="" style="endArrow=open;html=1;entryX=-0.09;entryY=0.151;entryDx=0;entryDy=0;entryPerimeter=0;endFill=0;exitX=1.073;exitY=0.807;exitDx=0;exitDy=0;exitPerimeter=0;" edge="1" parent="1" source="guHUwheasRssxjLzHh6A-12" target="guHUwheasRssxjLzHh6A-79">
          <mxGeometry width="50" height="50" relative="1" as="geometry">
            <mxPoint x="160" y="781" as="sourcePoint" />
            <mxPoint x="195" y="730" as="targetPoint" />
          </mxGeometry>
        </mxCell>
        <mxCell id="guHUwheasRssxjLzHh6A-83" value="浏览、评论、报名" style="text;html=1;strokeColor=none;fillColor=none;align=center;verticalAlign=middle;whiteSpace=wrap;rounded=0;" vertex="1" parent="1">
          <mxGeometry x="195" y="760" width="110" height="20" as="geometry" />
        </mxCell>
        <mxCell id="guHUwheasRssxjLzHh6A-78" value="" style="rounded=0;whiteSpace=wrap;html=1;" vertex="1" parent="1">
          <mxGeometry x="937.5" y="770" width="15" height="140" as="geometry" />
        </mxCell>
        <mxCell id="guHUwheasRssxjLzHh6A-87" value="" style="endArrow=open;html=1;exitX=1.052;exitY=0.365;exitDx=0;exitDy=0;exitPerimeter=0;endFill=0;" edge="1" parent="1" source="guHUwheasRssxjLzHh6A-79">
          <mxGeometry width="50" height="50" relative="1" as="geometry">
            <mxPoint x="810" y="820" as="sourcePoint" />
            <mxPoint x="937" y="811" as="targetPoint" />
          </mxGeometry>
        </mxCell>
        <mxCell id="guHUwheasRssxjLzHh6A-88" value="用户评论、报名信息" style="text;html=1;strokeColor=none;fillColor=none;align=center;verticalAlign=middle;whiteSpace=wrap;rounded=0;" vertex="1" parent="1">
          <mxGeometry x="780" y="790" width="120" height="20" as="geometry" />
        </mxCell>
        <mxCell id="guHUwheasRssxjLzHh6A-89" value="" style="endArrow=classic;html=1;" edge="1" parent="1">
          <mxGeometry width="50" height="50" relative="1" as="geometry">
            <mxPoint x="952.5" y="830" as="sourcePoint" />
            <mxPoint x="952.5" y="855" as="targetPoint" />
            <Array as="points">
              <mxPoint x="999.5" y="830" />
              <mxPoint x="999.5" y="855" />
            </Array>
          </mxGeometry>
        </mxCell>
        <mxCell id="guHUwheasRssxjLzHh6A-90" value="处理" style="text;html=1;strokeColor=none;fillColor=none;align=center;verticalAlign=middle;whiteSpace=wrap;rounded=0;" vertex="1" parent="1">
          <mxGeometry x="930" y="810" width="80" height="20" as="geometry" />
        </mxCell>
        <mxCell id="guHUwheasRssxjLzHh6A-91" value="" style="endArrow=open;html=1;dashed=1;endFill=0;" edge="1" parent="1">
          <mxGeometry width="50" height="50" relative="1" as="geometry">
            <mxPoint x="937" y="880" as="sourcePoint" />
            <mxPoint x="736" y="880" as="targetPoint" />
          </mxGeometry>
        </mxCell>
        <mxCell id="guHUwheasRssxjLzHh6A-92" value="官方信息" style="text;html=1;strokeColor=none;fillColor=none;align=center;verticalAlign=middle;whiteSpace=wrap;rounded=0;" vertex="1" parent="1">
          <mxGeometry x="780" y="860" width="120" height="20" as="geometry" />
        </mxCell>
        <mxCell id="guHUwheasRssxjLzHh6A-93" value="" style="endArrow=open;html=1;dashed=1;exitX=-0.1;exitY=0.936;exitDx=0;exitDy=0;exitPerimeter=0;entryX=1.033;entryY=0.964;entryDx=0;entryDy=0;entryPerimeter=0;endFill=0;" edge="1" parent="1" source="guHUwheasRssxjLzHh6A-79" target="guHUwheasRssxjLzHh6A-12">
          <mxGeometry width="50" height="50" relative="1" as="geometry">
            <mxPoint x="600" y="910" as="sourcePoint" />
            <mxPoint x="650" y="860" as="targetPoint" />
          </mxGeometry>
        </mxCell>
        <mxCell id="guHUwheasRssxjLzHh6A-94" value="官方反馈" style="text;html=1;strokeColor=none;fillColor=none;align=center;verticalAlign=middle;whiteSpace=wrap;rounded=0;" vertex="1" parent="1">
          <mxGeometry x="380" y="870" width="110" height="20" as="geometry" />
        </mxCell>
        <mxCell id="guHUwheasRssxjLzHh6A-95" style="edgeStyle=orthogonalEdgeStyle;rounded=0;orthogonalLoop=1;jettySize=auto;html=1;dashed=1;endArrow=none;endFill=0;" edge="1" parent="1" source="guHUwheasRssxjLzHh6A-101">
          <mxGeometry relative="1" as="geometry">
            <mxPoint x="1325.0000000000002" y="959.9999999999998" as="targetPoint" />
          </mxGeometry>
        </mxCell>
        <mxCell id="guHUwheasRssxjLzHh6A-96" value="用户" style="shape=umlActor;verticalLabelPosition=bottom;verticalAlign=top;html=1;outlineConnect=0;" vertex="1" parent="1">
          <mxGeometry x="1310" y="110" width="30" height="60" as="geometry" />
        </mxCell>
        <mxCell id="guHUwheasRssxjLzHh6A-97" value="用户" style="shape=umlActor;verticalLabelPosition=bottom;verticalAlign=top;html=1;outlineConnect=0;" vertex="1" parent="1">
          <mxGeometry x="2110" y="110" width="30" height="60" as="geometry" />
        </mxCell>
        <mxCell id="guHUwheasRssxjLzHh6A-98" value="管理员" style="shape=umlActor;verticalLabelPosition=bottom;verticalAlign=top;html=1;outlineConnect=0;" vertex="1" parent="1">
          <mxGeometry x="1710" y="110" width="30" height="60" as="geometry" />
        </mxCell>
        <mxCell id="guHUwheasRssxjLzHh6A-99" value="系统" style="shape=umlActor;verticalLabelPosition=bottom;verticalAlign=top;html=1;outlineConnect=0;" vertex="1" parent="1">
          <mxGeometry x="1510" y="110" width="30" height="60" as="geometry" />
        </mxCell>
        <mxCell id="guHUwheasRssxjLzHh6A-100" value="专栏" style="rounded=0;whiteSpace=wrap;html=1;" vertex="1" parent="1">
          <mxGeometry x="1870" y="120" width="70" height="40" as="geometry" />
        </mxCell>
        <mxCell id="guHUwheasRssxjLzHh6A-101" value="" style="rounded=0;whiteSpace=wrap;html=1;" vertex="1" parent="1">
          <mxGeometry x="1317.5" y="200" width="15" height="720" as="geometry" />
        </mxCell>
        <mxCell id="guHUwheasRssxjLzHh6A-102" style="edgeStyle=orthogonalEdgeStyle;rounded=0;orthogonalLoop=1;jettySize=auto;html=1;dashed=1;endArrow=none;endFill=0;" edge="1" parent="1" source="guHUwheasRssxjLzHh6A-96" target="guHUwheasRssxjLzHh6A-101">
          <mxGeometry relative="1" as="geometry">
            <mxPoint x="1325" y="760" as="targetPoint" />
            <mxPoint x="1325" y="170" as="sourcePoint" />
          </mxGeometry>
        </mxCell>
        <mxCell id="guHUwheasRssxjLzHh6A-158" value="官方组织" style="edgeLabel;html=1;align=center;verticalAlign=middle;resizable=0;points=[];" vertex="1" connectable="0" parent="guHUwheasRssxjLzHh6A-102">
          <mxGeometry x="-0.6114" y="1" relative="1" as="geometry">
            <mxPoint as="offset" />
          </mxGeometry>
        </mxCell>
        <mxCell id="guHUwheasRssxjLzHh6A-103" style="edgeStyle=orthogonalEdgeStyle;rounded=0;orthogonalLoop=1;jettySize=auto;html=1;dashed=1;endArrow=none;endFill=0;" edge="1" parent="1" source="guHUwheasRssxjLzHh6A-138">
          <mxGeometry relative="1" as="geometry">
            <mxPoint x="1524.9999999999998" y="959.9999999999998" as="targetPoint" />
            <mxPoint x="1525" y="170" as="sourcePoint" />
          </mxGeometry>
        </mxCell>
        <mxCell id="guHUwheasRssxjLzHh6A-104" style="edgeStyle=orthogonalEdgeStyle;rounded=0;orthogonalLoop=1;jettySize=auto;html=1;dashed=1;endArrow=none;endFill=0;" edge="1" parent="1" source="guHUwheasRssxjLzHh6A-133">
          <mxGeometry relative="1" as="geometry">
            <mxPoint x="1724.9999999999998" y="959.9999999999998" as="targetPoint" />
            <mxPoint x="1724.5" y="170" as="sourcePoint" />
          </mxGeometry>
        </mxCell>
        <mxCell id="guHUwheasRssxjLzHh6A-105" style="edgeStyle=orthogonalEdgeStyle;rounded=0;orthogonalLoop=1;jettySize=auto;html=1;dashed=1;endArrow=none;endFill=0;" edge="1" parent="1" source="guHUwheasRssxjLzHh6A-146">
          <mxGeometry relative="1" as="geometry">
            <mxPoint x="1905" y="959.9999999999998" as="targetPoint" />
            <mxPoint x="1904.5" y="160" as="sourcePoint" />
            <Array as="points">
              <mxPoint x="1905" y="170" />
              <mxPoint x="1905" y="170" />
            </Array>
          </mxGeometry>
        </mxCell>
        <mxCell id="guHUwheasRssxjLzHh6A-106" style="edgeStyle=orthogonalEdgeStyle;rounded=0;orthogonalLoop=1;jettySize=auto;html=1;dashed=1;endArrow=none;endFill=0;" edge="1" parent="1" source="guHUwheasRssxjLzHh6A-149">
          <mxGeometry relative="1" as="geometry">
            <mxPoint x="2125" y="959.9999999999998" as="targetPoint" />
            <mxPoint x="2124.5" y="170" as="sourcePoint" />
            <Array as="points">
              <mxPoint x="2125" y="180" />
              <mxPoint x="2125" y="180" />
            </Array>
          </mxGeometry>
        </mxCell>
        <mxCell id="guHUwheasRssxjLzHh6A-159" value="Text" style="edgeLabel;html=1;align=center;verticalAlign=middle;resizable=0;points=[];" vertex="1" connectable="0" parent="guHUwheasRssxjLzHh6A-106">
          <mxGeometry x="-0.1487" y="2" relative="1" as="geometry">
            <mxPoint as="offset" />
          </mxGeometry>
        </mxCell>
        <mxCell id="guHUwheasRssxjLzHh6A-107" style="edgeStyle=orthogonalEdgeStyle;rounded=0;orthogonalLoop=1;jettySize=auto;html=1;dashed=1;endArrow=none;endFill=0;" edge="1" parent="1">
          <mxGeometry relative="1" as="geometry">
            <mxPoint x="1524.9999999999998" y="460" as="targetPoint" />
            <mxPoint x="1525" y="370" as="sourcePoint" />
          </mxGeometry>
        </mxCell>
        <mxCell id="guHUwheasRssxjLzHh6A-108" style="edgeStyle=orthogonalEdgeStyle;rounded=0;orthogonalLoop=1;jettySize=auto;html=1;dashed=1;endArrow=none;endFill=0;" edge="1" parent="1">
          <mxGeometry relative="1" as="geometry">
            <mxPoint x="1524.9999999999998" y="460" as="targetPoint" />
            <mxPoint x="1525" y="370" as="sourcePoint" />
          </mxGeometry>
        </mxCell>
        <mxCell id="guHUwheasRssxjLzHh6A-109" style="edgeStyle=orthogonalEdgeStyle;rounded=0;orthogonalLoop=1;jettySize=auto;html=1;dashed=1;endArrow=none;endFill=0;" edge="1" parent="1" source="guHUwheasRssxjLzHh6A-123">
          <mxGeometry relative="1" as="geometry">
            <mxPoint x="1524.9999999999998" y="440" as="targetPoint" />
          </mxGeometry>
        </mxCell>
        <mxCell id="guHUwheasRssxjLzHh6A-110" style="edgeStyle=orthogonalEdgeStyle;rounded=0;orthogonalLoop=1;jettySize=auto;html=1;dashed=1;endArrow=none;endFill=0;" edge="1" parent="1" source="guHUwheasRssxjLzHh6A-123">
          <mxGeometry relative="1" as="geometry">
            <mxPoint x="1524.9999999999998" y="500" as="targetPoint" />
          </mxGeometry>
        </mxCell>
        <mxCell id="guHUwheasRssxjLzHh6A-112" style="edgeStyle=orthogonalEdgeStyle;rounded=0;orthogonalLoop=1;jettySize=auto;html=1;dashed=1;endArrow=none;endFill=0;" edge="1" parent="1" source="guHUwheasRssxjLzHh6A-123">
          <mxGeometry relative="1" as="geometry">
            <mxPoint x="1525" y="370" as="targetPoint" />
            <mxPoint x="1524.9999999999998" y="170" as="sourcePoint" />
          </mxGeometry>
        </mxCell>
        <mxCell id="guHUwheasRssxjLzHh6A-114" value="填写申请信息" style="text;html=1;strokeColor=none;fillColor=none;align=center;verticalAlign=middle;whiteSpace=wrap;rounded=0;" vertex="1" parent="1">
          <mxGeometry x="1430" y="200" width="80" height="20" as="geometry" />
        </mxCell>
        <mxCell id="guHUwheasRssxjLzHh6A-120" value="" style="endArrow=classic;html=1;" edge="1" parent="1">
          <mxGeometry width="50" height="50" relative="1" as="geometry">
            <mxPoint x="1532.4999999999998" y="360" as="sourcePoint" />
            <mxPoint x="1532.4999999999998" y="385" as="targetPoint" />
            <Array as="points">
              <mxPoint x="1579.5" y="360" />
              <mxPoint x="1579.5" y="385" />
            </Array>
          </mxGeometry>
        </mxCell>
        <mxCell id="guHUwheasRssxjLzHh6A-122" style="edgeStyle=orthogonalEdgeStyle;rounded=0;orthogonalLoop=1;jettySize=auto;html=1;dashed=1;endArrow=none;endFill=0;" edge="1" parent="1" source="guHUwheasRssxjLzHh6A-123">
          <mxGeometry relative="1" as="geometry">
            <mxPoint x="1524.9999999999998" y="520" as="targetPoint" />
            <Array as="points">
              <mxPoint x="1525" y="580" />
              <mxPoint x="1525" y="580" />
            </Array>
          </mxGeometry>
        </mxCell>
        <mxCell id="guHUwheasRssxjLzHh6A-124" value="注册" style="text;html=1;strokeColor=none;fillColor=none;align=center;verticalAlign=middle;whiteSpace=wrap;rounded=0;" vertex="1" parent="1">
          <mxGeometry x="1517.5" y="340" width="80" height="20" as="geometry" />
        </mxCell>
        <mxCell id="guHUwheasRssxjLzHh6A-126" value="" style="endArrow=classic;html=1;" edge="1" parent="1">
          <mxGeometry width="50" height="50" relative="1" as="geometry">
            <mxPoint x="1533.9999999999998" y="435" as="sourcePoint" />
            <mxPoint x="1533.9999999999998" y="460" as="targetPoint" />
            <Array as="points">
              <mxPoint x="1581" y="435" />
              <mxPoint x="1581" y="460" />
            </Array>
          </mxGeometry>
        </mxCell>
        <mxCell id="guHUwheasRssxjLzHh6A-127" value="记录" style="text;html=1;strokeColor=none;fillColor=none;align=center;verticalAlign=middle;whiteSpace=wrap;rounded=0;" vertex="1" parent="1">
          <mxGeometry x="1517.5" y="410" width="80" height="20" as="geometry" />
        </mxCell>
        <mxCell id="guHUwheasRssxjLzHh6A-128" value="" style="endArrow=open;html=1;dashed=1;exitX=-0.09;exitY=0.859;exitDx=0;exitDy=0;exitPerimeter=0;endFill=0;entryX=1.033;entryY=0.374;entryDx=0;entryDy=0;entryPerimeter=0;" edge="1" parent="1" source="guHUwheasRssxjLzHh6A-123" target="guHUwheasRssxjLzHh6A-101">
          <mxGeometry width="50" height="50" relative="1" as="geometry">
            <mxPoint x="1410" y="460" as="sourcePoint" />
            <mxPoint x="1480" y="490" as="targetPoint" />
          </mxGeometry>
        </mxCell>
        <mxCell id="guHUwheasRssxjLzHh6A-129" value="注册成功 登录" style="text;html=1;strokeColor=none;fillColor=none;align=center;verticalAlign=middle;whiteSpace=wrap;rounded=0;" vertex="1" parent="1">
          <mxGeometry x="1390" y="450" width="80" height="20" as="geometry" />
        </mxCell>
        <mxCell id="guHUwheasRssxjLzHh6A-132" value="" style="endArrow=open;html=1;exitX=1;exitY=0.5;exitDx=0;exitDy=0;endFill=0;" edge="1" parent="1" source="guHUwheasRssxjLzHh6A-101">
          <mxGeometry width="50" height="50" relative="1" as="geometry">
            <mxPoint x="1370" y="600" as="sourcePoint" />
            <mxPoint x="1717" y="560.0000000000002" as="targetPoint" />
          </mxGeometry>
        </mxCell>
        <mxCell id="guHUwheasRssxjLzHh6A-133" value="" style="rounded=0;whiteSpace=wrap;html=1;" vertex="1" parent="1">
          <mxGeometry x="1717.5" y="540" width="15" height="100" as="geometry" />
        </mxCell>
        <mxCell id="guHUwheasRssxjLzHh6A-134" style="edgeStyle=orthogonalEdgeStyle;rounded=0;orthogonalLoop=1;jettySize=auto;html=1;dashed=1;endArrow=none;endFill=0;" edge="1" parent="1" target="guHUwheasRssxjLzHh6A-133" source="guHUwheasRssxjLzHh6A-162">
          <mxGeometry relative="1" as="geometry">
            <mxPoint x="1724.5" y="760" as="targetPoint" />
            <mxPoint x="1724.5" y="170" as="sourcePoint" />
          </mxGeometry>
        </mxCell>
        <mxCell id="guHUwheasRssxjLzHh6A-135" value="填写活动信息" style="text;html=1;strokeColor=none;fillColor=none;align=center;verticalAlign=middle;whiteSpace=wrap;rounded=0;" vertex="1" parent="1">
          <mxGeometry x="1420" y="540" width="80" height="20" as="geometry" />
        </mxCell>
        <mxCell id="guHUwheasRssxjLzHh6A-136" value="" style="endArrow=classic;html=1;" edge="1" parent="1">
          <mxGeometry width="50" height="50" relative="1" as="geometry">
            <mxPoint x="1732.4999999999998" y="570.0000000000002" as="sourcePoint" />
            <mxPoint x="1732.4999999999998" y="594.9999999999998" as="targetPoint" />
            <Array as="points">
              <mxPoint x="1779.5" y="570" />
              <mxPoint x="1779.5" y="595" />
            </Array>
          </mxGeometry>
        </mxCell>
        <mxCell id="guHUwheasRssxjLzHh6A-137" value="核查" style="text;html=1;strokeColor=none;fillColor=none;align=center;verticalAlign=middle;whiteSpace=wrap;rounded=0;" vertex="1" parent="1">
          <mxGeometry x="1710" y="550" width="80" height="20" as="geometry" />
        </mxCell>
        <mxCell id="guHUwheasRssxjLzHh6A-138" value="" style="rounded=0;whiteSpace=wrap;html=1;" vertex="1" parent="1">
          <mxGeometry x="1517.5" y="580" width="15" height="130" as="geometry" />
        </mxCell>
        <mxCell id="guHUwheasRssxjLzHh6A-140" value="" style="endArrow=classic;html=1;dashed=1;entryX=1;entryY=0.25;entryDx=0;entryDy=0;" edge="1" parent="1" target="guHUwheasRssxjLzHh6A-138">
          <mxGeometry width="50" height="50" relative="1" as="geometry">
            <mxPoint x="1714.9999999999998" y="613" as="sourcePoint" />
            <mxPoint x="1660" y="600" as="targetPoint" />
          </mxGeometry>
        </mxCell>
        <mxCell id="guHUwheasRssxjLzHh6A-141" value="活动信息" style="text;html=1;strokeColor=none;fillColor=none;align=center;verticalAlign=middle;whiteSpace=wrap;rounded=0;" vertex="1" parent="1">
          <mxGeometry x="1590" y="590" width="80" height="20" as="geometry" />
        </mxCell>
        <mxCell id="guHUwheasRssxjLzHh6A-142" value="" style="endArrow=classic;html=1;" edge="1" parent="1">
          <mxGeometry width="50" height="50" relative="1" as="geometry">
            <mxPoint x="1534" y="639.9999999999998" as="sourcePoint" />
            <mxPoint x="1534" y="664.9999999999998" as="targetPoint" />
            <Array as="points">
              <mxPoint x="1581" y="640" />
              <mxPoint x="1581" y="665" />
            </Array>
          </mxGeometry>
        </mxCell>
        <mxCell id="guHUwheasRssxjLzHh6A-143" value="处理" style="text;html=1;strokeColor=none;fillColor=none;align=center;verticalAlign=middle;whiteSpace=wrap;rounded=0;" vertex="1" parent="1">
          <mxGeometry x="1517.5" y="620" width="80" height="20" as="geometry" />
        </mxCell>
        <mxCell id="guHUwheasRssxjLzHh6A-144" value="" style="endArrow=open;html=1;dashed=1;entryX=0.967;entryY=0.668;entryDx=0;entryDy=0;entryPerimeter=0;endFill=0;" edge="1" parent="1" target="guHUwheasRssxjLzHh6A-101">
          <mxGeometry width="50" height="50" relative="1" as="geometry">
            <mxPoint x="1517.4999999999998" y="680.5" as="sourcePoint" />
            <mxPoint x="1332" y="682" as="targetPoint" />
          </mxGeometry>
        </mxCell>
        <mxCell id="guHUwheasRssxjLzHh6A-145" value="申请活动成功" style="text;html=1;strokeColor=none;fillColor=none;align=center;verticalAlign=middle;whiteSpace=wrap;rounded=0;" vertex="1" parent="1">
          <mxGeometry x="1390" y="660" width="80" height="20" as="geometry" />
        </mxCell>
        <mxCell id="guHUwheasRssxjLzHh6A-146" value="" style="rounded=0;whiteSpace=wrap;html=1;" vertex="1" parent="1">
          <mxGeometry x="1897.5" y="760" width="15" height="140" as="geometry" />
        </mxCell>
        <mxCell id="guHUwheasRssxjLzHh6A-147" value="" style="endArrow=open;html=1;entryX=-0.09;entryY=0.151;entryDx=0;entryDy=0;entryPerimeter=0;endFill=0;exitX=1.073;exitY=0.807;exitDx=0;exitDy=0;exitPerimeter=0;" edge="1" parent="1" source="guHUwheasRssxjLzHh6A-101" target="guHUwheasRssxjLzHh6A-146">
          <mxGeometry width="50" height="50" relative="1" as="geometry">
            <mxPoint x="1340" y="781" as="sourcePoint" />
            <mxPoint x="1375" y="730" as="targetPoint" />
          </mxGeometry>
        </mxCell>
        <mxCell id="guHUwheasRssxjLzHh6A-148" value="发布活动" style="text;html=1;strokeColor=none;fillColor=none;align=center;verticalAlign=middle;whiteSpace=wrap;rounded=0;" vertex="1" parent="1">
          <mxGeometry x="1415" y="760" width="110" height="20" as="geometry" />
        </mxCell>
        <mxCell id="guHUwheasRssxjLzHh6A-149" value="" style="rounded=0;whiteSpace=wrap;html=1;" vertex="1" parent="1">
          <mxGeometry x="2117.5" y="770" width="15" height="140" as="geometry" />
        </mxCell>
        <mxCell id="guHUwheasRssxjLzHh6A-150" value="" style="endArrow=open;html=1;exitX=1.052;exitY=0.365;exitDx=0;exitDy=0;exitPerimeter=0;endFill=0;" edge="1" parent="1" source="guHUwheasRssxjLzHh6A-146">
          <mxGeometry width="50" height="50" relative="1" as="geometry">
            <mxPoint x="1990" y="820" as="sourcePoint" />
            <mxPoint x="1913" y="811" as="targetPoint" />
            <Array as="points">
              <mxPoint x="2120" y="811" />
            </Array>
          </mxGeometry>
        </mxCell>
        <mxCell id="guHUwheasRssxjLzHh6A-151" value="活动参与" style="text;html=1;strokeColor=none;fillColor=none;align=center;verticalAlign=middle;whiteSpace=wrap;rounded=0;" vertex="1" parent="1">
          <mxGeometry x="1960" y="790" width="120" height="20" as="geometry" />
        </mxCell>
        <mxCell id="guHUwheasRssxjLzHh6A-154" value="" style="endArrow=open;html=1;dashed=1;endFill=0;entryX=0.033;entryY=0.814;entryDx=0;entryDy=0;entryPerimeter=0;" edge="1" parent="1" target="guHUwheasRssxjLzHh6A-149">
          <mxGeometry width="50" height="50" relative="1" as="geometry">
            <mxPoint x="1913" y="884" as="sourcePoint" />
            <mxPoint x="2090" y="880" as="targetPoint" />
          </mxGeometry>
        </mxCell>
        <mxCell id="guHUwheasRssxjLzHh6A-155" value="官方信息" style="text;html=1;strokeColor=none;fillColor=none;align=center;verticalAlign=middle;whiteSpace=wrap;rounded=0;" vertex="1" parent="1">
          <mxGeometry x="1960" y="860" width="120" height="20" as="geometry" />
        </mxCell>
        <mxCell id="guHUwheasRssxjLzHh6A-156" value="" style="endArrow=open;html=1;dashed=1;entryX=0.967;entryY=0.881;entryDx=0;entryDy=0;entryPerimeter=0;endFill=0;" edge="1" parent="1" target="guHUwheasRssxjLzHh6A-101">
          <mxGeometry width="50" height="50" relative="1" as="geometry">
            <mxPoint x="1896" y="834" as="sourcePoint" />
            <mxPoint x="1830" y="860" as="targetPoint" />
          </mxGeometry>
        </mxCell>
        <mxCell id="guHUwheasRssxjLzHh6A-157" value="用户评论以及参与情况" style="text;html=1;strokeColor=none;fillColor=none;align=center;verticalAlign=middle;whiteSpace=wrap;rounded=0;" vertex="1" parent="1">
          <mxGeometry x="1560" y="810" width="130" height="20" as="geometry" />
        </mxCell>
        <mxCell id="guHUwheasRssxjLzHh6A-161" value="" style="endArrow=open;html=1;endFill=0;" edge="1" parent="1">
          <mxGeometry width="50" height="50" relative="1" as="geometry">
            <mxPoint x="1332.5" y="220" as="sourcePoint" />
            <mxPoint x="1718" y="220" as="targetPoint" />
          </mxGeometry>
        </mxCell>
        <mxCell id="guHUwheasRssxjLzHh6A-162" value="" style="rounded=0;whiteSpace=wrap;html=1;" vertex="1" parent="1">
          <mxGeometry x="1717.5" y="210" width="15" height="130" as="geometry" />
        </mxCell>
        <mxCell id="guHUwheasRssxjLzHh6A-163" style="edgeStyle=orthogonalEdgeStyle;rounded=0;orthogonalLoop=1;jettySize=auto;html=1;dashed=1;endArrow=none;endFill=0;" edge="1" parent="1" target="guHUwheasRssxjLzHh6A-162">
          <mxGeometry relative="1" as="geometry">
            <mxPoint x="1725" y="540.0000000000002" as="targetPoint" />
            <mxPoint x="1724.5" y="170" as="sourcePoint" />
          </mxGeometry>
        </mxCell>
        <mxCell id="guHUwheasRssxjLzHh6A-166" value="" style="endArrow=classic;html=1;" edge="1" parent="1">
          <mxGeometry width="50" height="50" relative="1" as="geometry">
            <mxPoint x="1732.5" y="227.50000000000023" as="sourcePoint" />
            <mxPoint x="1732.5" y="252.49999999999977" as="targetPoint" />
            <Array as="points">
              <mxPoint x="1779.5" y="227.5" />
              <mxPoint x="1779.5" y="252.5" />
            </Array>
          </mxGeometry>
        </mxCell>
        <mxCell id="guHUwheasRssxjLzHh6A-167" value="审核" style="text;html=1;strokeColor=none;fillColor=none;align=center;verticalAlign=middle;whiteSpace=wrap;rounded=0;" vertex="1" parent="1">
          <mxGeometry x="1710" y="210" width="80" height="20" as="geometry" />
        </mxCell>
        <mxCell id="guHUwheasRssxjLzHh6A-169" value="" style="endArrow=open;html=1;dashed=1;endFill=0;entryX=1.033;entryY=0.091;entryDx=0;entryDy=0;entryPerimeter=0;" edge="1" parent="1" target="guHUwheasRssxjLzHh6A-123">
          <mxGeometry width="50" height="50" relative="1" as="geometry">
            <mxPoint x="1717.5" y="299.99999999999994" as="sourcePoint" />
            <mxPoint x="1570" y="301" as="targetPoint" />
          </mxGeometry>
        </mxCell>
        <mxCell id="guHUwheasRssxjLzHh6A-123" value="" style="rounded=0;whiteSpace=wrap;html=1;" vertex="1" parent="1">
          <mxGeometry x="1517.5" y="280" width="15" height="220" as="geometry" />
        </mxCell>
        <mxCell id="guHUwheasRssxjLzHh6A-175" style="edgeStyle=orthogonalEdgeStyle;rounded=0;orthogonalLoop=1;jettySize=auto;html=1;dashed=1;endArrow=none;endFill=0;" edge="1" parent="1" target="guHUwheasRssxjLzHh6A-123">
          <mxGeometry relative="1" as="geometry">
            <mxPoint x="1525" y="370" as="targetPoint" />
            <mxPoint x="1525" y="170" as="sourcePoint" />
          </mxGeometry>
        </mxCell>
        <mxCell id="guHUwheasRssxjLzHh6A-176" value="审核信息" style="text;html=1;strokeColor=none;fillColor=none;align=center;verticalAlign=middle;whiteSpace=wrap;rounded=0;" vertex="1" parent="1">
          <mxGeometry x="1590" y="280" width="80" height="20" as="geometry" />
        </mxCell>
        <mxCell id="guHUwheasRssxjLzHh6A-178" value="" style="endArrow=block;html=1;entryX=-0.09;entryY=0.151;entryDx=0;entryDy=0;entryPerimeter=0;endFill=1;exitX=1.073;exitY=0.807;exitDx=0;exitDy=0;exitPerimeter=0;" edge="1" parent="1">
          <mxGeometry width="50" height="50" relative="1" as="geometry">
            <mxPoint x="1334.9449999999997" y="869" as="sourcePoint" />
            <mxPoint x="1897.5" y="869.1000000000001" as="targetPoint" />
          </mxGeometry>
        </mxCell>
        <mxCell id="guHUwheasRssxjLzHh6A-179" value="对用户进行反馈" style="text;html=1;strokeColor=none;fillColor=none;align=center;verticalAlign=middle;whiteSpace=wrap;rounded=0;" vertex="1" parent="1">
          <mxGeometry x="1415" y="850" width="110" height="20" as="geometry" />
        </mxCell>
      </root>
    </mxGraphModel>
  </diagram>
</mxfile>
